<svg id="visual" viewBox="0 0 960 200" width="960" height="200" xmlns="http://www.w3.org/2000/svg" xmlns:xlink="http://www.w3.org/1999/xlink" version="1.1"><path d="M0 38L17.8 42.2C35.7 46.3 71.3 54.7 106.8 54.5C142.3 54.3 177.7 45.7 213.2 52.3C248.7 59 284.3 81 320 79.3C355.7 77.7 391.3 52.3 426.8 43.3C462.3 34.3 497.7 41.7 533.2 51.5C568.7 61.3 604.3 73.7 640 78C675.7 82.3 711.3 78.7 746.8 75C782.3 71.3 817.7 67.7 853.2 73C888.7 78.3 924.3 92.7 942.2 99.8L960 107L960 201L942.2 201C924.3 201 888.7 201 853.2 201C817.7 201 782.3 201 746.8 201C711.3 201 675.7 201 640 201C604.3 201 568.7 201 533.2 201C497.7 201 462.3 201 426.8 201C391.3 201 355.7 201 320 201C284.3 201 248.7 201 213.2 201C177.7 201 142.3 201 106.8 201C71.3 201 35.7 201 17.8 201L0 201Z" fill="#ffab44"></path><path d="M0 118L17.8 109.3C35.7 100.7 71.3 83.3 106.8 77.5C142.3 71.7 177.7 77.3 213.2 78C248.7 78.7 284.3 74.3 320 82.2C355.7 90 391.3 110 426.8 110.8C462.3 111.7 497.7 93.3 533.2 81.2C568.7 69 604.3 63 640 67.8C675.7 72.7 711.3 88.3 746.8 99.2C782.3 110 817.7 116 853.2 115.2C888.7 114.3 924.3 106.7 942.2 102.8L960 99L960 201L942.2 201C924.3 201 888.7 201 853.2 201C817.7 201 782.3 201 746.8 201C711.3 201 675.7 201 640 201C604.3 201 568.7 201 533.2 201C497.7 201 462.3 201 426.8 201C391.3 201 355.7 201 320 201C284.3 201 248.7 201 213.2 201C177.7 201 142.3 201 106.8 201C71.3 201 35.7 201 17.8 201L0 201Z" fill="#ff896a"></path><path d="M0 97L17.8 107.7C35.7 118.3 71.3 139.7 106.8 146.5C142.3 153.3 177.7 145.7 213.2 137C248.7 128.3 284.3 118.7 320 117.3C355.7 116 391.3 123 426.8 130.5C462.3 138 497.7 146 533.2 148.5C568.7 151 604.3 148 640 141C675.7 134 711.3 123 746.8 114.3C782.3 105.7 817.7 99.3 853.2 107.5C888.7 115.7 924.3 138.3 942.2 149.7L960 161L960 201L942.2 201C924.3 201 888.7 201 853.2 201C817.7 201 782.3 201 746.8 201C711.3 201 675.7 201 640 201C604.3 201 568.7 201 533.2 201C497.7 201 462.3 201 426.8 201C391.3 201 355.7 201 320 201C284.3 201 248.7 201 213.2 201C177.7 201 142.3 201 106.8 201C71.3 201 35.7 201 17.8 201L0 201Z" fill="#e5768a"></path><path d="M0 137L17.8 142.5C35.7 148 71.3 159 106.8 157.3C142.3 155.7 177.7 141.3 213.2 136.2C248.7 131 284.3 135 320 133.7C355.7 132.3 391.3 125.7 426.8 122.2C462.3 118.7 497.7 118.3 533.2 125.5C568.7 132.7 604.3 147.3 640 148.7C675.7 150 711.3 138 746.8 137.2C782.3 136.3 817.7 146.7 853.2 145.8C888.7 145 924.3 133 942.2 127L960 121L960 201L942.2 201C924.3 201 888.7 201 853.2 201C817.7 201 782.3 201 746.8 201C711.3 201 675.7 201 640 201C604.3 201 568.7 201 533.2 201C497.7 201 462.3 201 426.8 201C391.3 201 355.7 201 320 201C284.3 201 248.7 201 213.2 201C177.7 201 142.3 201 106.8 201C71.3 201 35.7 201 17.8 201L0 201Z" fill="#b6709a"></path><path d="M0 148L17.8 151.5C35.7 155 71.3 162 106.8 164.3C142.3 166.7 177.7 164.3 213.2 165.3C248.7 166.3 284.3 170.7 320 168.3C355.7 166 391.3 157 426.8 154.7C462.3 152.3 497.7 156.7 533.2 159.5C568.7 162.3 604.3 163.7 640 165.8C675.7 168 711.3 171 746.8 174.7C782.3 178.3 817.7 182.7 853.2 183.7C888.7 184.7 924.3 182.3 942.2 181.2L960 180L960 201L942.2 201C924.3 201 888.7 201 853.2 201C817.7 201 782.3 201 746.8 201C711.3 201 675.7 201 640 201C604.3 201 568.7 201 533.2 201C497.7 201 462.3 201 426.8 201C391.3 201 355.7 201 320 201C284.3 201 248.7 201 213.2 201C177.7 201 142.3 201 106.8 201C71.3 201 35.7 201 17.8 201L0 201Z" fill="#826c94" preserveAspectRatio="none"></path></svg>